<?xml version="1.0"?>
<svg xmlns="http://www.w3.org/2000/svg" xmlns:xlink="http://www.w3.org/1999/xlink" xmlns:svgjs="http://svgjs.com/svgjs" version="1.1" width="512" height="512" x="0" y="0" viewBox="0 0 496 496" style="enable-background:new 0 0 512 512" xml:space="preserve" class=""><g>
<g xmlns="http://www.w3.org/2000/svg">
	<g>
		<g>
			<path d="M17.816,168.16l1.688,1.12c3.473,2.305,7.288,4.049,11.304,5.168c-4.351,5.57-6.744,12.42-6.808,19.488V200     c0,17.673,14.327,32,32,32h6.064c7.068-0.064,13.918-2.457,19.488-6.808c1.12,4.018,2.864,7.835,5.168,11.312l1.12,1.68     c7.409,11.142,19.907,17.831,33.288,17.816h13.744c13.381,0.015,25.879-6.674,33.288-17.816l1.12-1.68     c2.304-3.477,4.048-7.294,5.168-11.312c5.57,4.351,12.42,6.744,19.488,6.808H200c17.673,0,32-14.327,32-32v-6.064     c-0.064-7.068-2.457-13.918-6.808-19.488c4.018-1.12,7.835-2.864,11.312-5.168l1.68-1.12     c11.142-7.409,17.831-19.907,17.816-33.288v-13.744c0.016-13.381-6.674-25.879-17.816-33.288l-1.68-1.12     c-3.477-2.304-7.294-4.048-11.312-5.168c4.351-5.57,6.744-12.42,6.808-19.488V56c0-17.673-14.327-32-32-32h-6.064     c-7.068,0.064-13.918,2.457-19.488,6.808c-1.119-4.016-2.863-7.831-5.168-11.304l-1.12-1.688     C160.751,6.674,148.253-0.015,134.872,0h-13.744C107.747-0.015,95.249,6.674,87.84,17.816l-1.12,1.688     c-2.305,3.473-4.049,7.288-5.168,11.304c-5.57-4.351-12.42-6.744-19.488-6.808H56c-17.673,0-32,14.327-32,32v6.064     c0.064,7.068,2.457,13.918,6.808,19.488c-4.016,1.119-7.831,2.863-11.304,5.168l-1.688,1.12     C6.674,95.249-0.015,107.747,0,121.128v13.744C-0.015,148.253,6.674,160.751,17.816,168.16z M85.704,180.28     C81.972,186.498,80,193.613,80,200.864v3.824l-6.624,6.624c-3.007,2.99-7.071,4.674-11.312,4.688H56c-8.837,0-16-7.163-16-16     v-6.064c0.014-4.24,1.698-8.305,4.688-11.312L51.312,176h3.824c7.252,0,14.367-1.972,20.584-5.704l24.96-14.976L85.704,180.28z      M160,214.312c0.017,4.736-1.376,9.37-4,13.312l-1.128,1.688c-4.449,6.695-11.962,10.71-20,10.688h-13.744     c-8.038,0.022-15.551-3.993-20-10.688L100,227.624c-2.624-3.942-4.017-8.576-4-13.312v-13.448c0-4.352,1.184-8.621,3.424-12.352     l18.224-30.4c0.8,0.264,1.552,0.52,2.352,0.728V176h16v-17.136c0.8-0.208,1.6-0.464,2.352-0.728l18.224,30.4     c2.236,3.724,3.419,7.984,3.424,12.328V214.312z M112,128c0-8.837,7.163-16,16-16s16,7.163,16,16s-7.163,16-16,16     S112,136.837,112,128z M216,200c0,8.837-7.163,16-16,16h-6.064c-4.241-0.014-8.305-1.698-11.312-4.688L176,204.688v-3.824     c0-7.252-1.972-14.367-5.704-20.584l-14.976-24.96l24.96,14.976c6.217,3.732,13.332,5.704,20.584,5.704h3.824l6.624,6.624     c2.99,3.007,4.674,7.072,4.688,11.312V200z M227.624,100l1.688,1.16c6.685,4.443,10.699,11.941,10.688,19.968v13.744     c0.022,8.038-3.993,15.551-10.688,20L227.624,156c-3.942,2.624-8.576,4.017-13.312,4h-13.448c-4.352,0-8.621-1.184-12.352-3.424     l-30.4-18.224c0.264-0.8,0.52-1.552,0.728-2.352H176v-16h-17.136c-0.208-0.8-0.464-1.6-0.728-2.352l30.4-18.224     c3.724-2.236,7.985-3.419,12.328-3.424h13.448C219.048,95.983,223.682,97.376,227.624,100z M170.296,75.72     C174.028,69.503,176,62.388,176,55.136v-3.824l6.624-6.624c3.007-2.99,7.071-4.674,11.312-4.688H200c8.837,0,16,7.163,16,16     v6.064c-0.014,4.24-1.698,8.305-4.688,11.312L204.688,80h-3.824c-7.252,0-14.367,1.972-20.584,5.704l-24.96,14.976L170.296,75.72     z M96,41.688c-0.017-4.736,1.376-9.37,4-13.312l1.128-1.688c4.449-6.695,11.962-10.71,20-10.688h13.744     c8.038-0.022,15.551,3.993,20,10.688L156,28.376c2.624,3.942,4.017,8.576,4,13.312v13.448c0,4.352-1.184,8.621-3.424,12.352     l-18.224,30.4c-0.8-0.264-1.552-0.52-2.352-0.728V80h-16v17.136c-0.8,0.208-1.6,0.464-2.352,0.728l-18.224-30.4     C97.188,63.74,96.005,59.48,96,55.136V41.688z M40,56c0-8.837,7.163-16,16-16h6.064c4.24,0.014,8.305,1.698,11.312,4.688     L80,51.312v3.824c0,7.252,1.972,14.367,5.704,20.584l14.976,24.96L75.72,85.704C69.503,81.972,62.388,80,55.136,80h-3.824     l-6.624-6.624c-2.99-3.007-4.674-7.071-4.688-11.312V56z M16,121.128c-0.022-8.038,3.993-15.551,10.688-20L28.376,100     c3.942-2.624,8.576-4.017,13.312-4h13.448c4.352,0,8.621,1.184,12.352,3.424l30.4,18.224c-0.264,0.8-0.52,1.552-0.728,2.352H80     v16h17.136c0.208,0.8,0.464,1.6,0.728,2.352l-30.4,18.224c-3.724,2.236-7.985,3.419-12.328,3.424H41.688     c-4.736,0.017-9.37-1.376-13.312-4l-1.688-1.128c-6.695-4.449-10.71-11.962-10.688-20V121.128z" fill="#eeeeee" data-original="#000000" style="" class=""/>
			<path d="M472,272H24c-13.224-0.025-23.964,10.675-23.989,23.898c-0.019,10.174,6.393,19.25,15.989,22.63V392     c0.066,57.41,46.59,103.934,104,104h256c57.41-0.066,103.934-46.59,104-104v-73.472c12.473-4.393,19.023-18.066,14.63-30.539     C491.249,278.393,482.174,271.981,472,272z M464,392c-0.057,48.577-39.423,87.943-88,88H120c-48.577-0.057-87.943-39.423-88-88     v-72h400v64c-0.04,35.33-28.67,63.96-64,64h-72v16h72c44.163-0.049,79.952-35.837,80-80v-64h16V392z M472,304H24     c-4.418,0-8-3.582-8-8s3.582-8,8-8h448c4.418,0,8,3.582,8,8S476.418,304,472,304z" fill="#eeeeee" data-original="#000000" style="" class=""/>
			<path d="M496,33.376V24c0-13.255-10.745-24-24-24h-9.376c-6.368-0.015-12.477,2.517-16.968,7.032L440,12.688L429.656,2.344     c-3.124-3.123-8.188-3.123-11.312,0l-32,32c-3.123,3.124-3.123,8.188,0,11.312L396.688,56L295.032,157.656     c-4.515,4.491-7.047,10.6-7.032,16.968V184c0,13.255,10.745,24,24,24h9.376c6.369,0.018,12.479-2.514,16.968-7.032L440,99.312     l10.344,10.344c3.124,3.123,8.188,3.123,11.312,0l32-32c3.123-3.124,3.123-8.188,0-11.312L483.312,56l5.656-5.656     C493.486,45.855,496.018,39.745,496,33.376z M327.032,189.656c-1.5,1.5-3.534,2.344-5.656,2.344H312c-4.418,0-8-3.582-8-8v-9.376     c0-2.122,0.844-4.156,2.344-5.656L408,67.312L428.688,88L327.032,189.656z M456,92.688L403.312,40L424,19.312l10.344,10.344     l32,32L476.688,72L456,92.688z M480,33.376c0,2.122-0.844,4.156-2.344,5.656L472,44.688L451.312,24l5.656-5.656     c1.5-1.5,3.534-2.344,5.656-2.344H472c4.418,0,8,3.582,8,8V33.376z" fill="#eeeeee" data-original="#000000" style="" class=""/>
			<path d="M240,232c0,13.255,10.745,24,24,24s24-10.745,24-24s-10.745-24-24-24S240,218.745,240,232z M264,224c4.418,0,8,3.582,8,8     s-3.582,8-8,8s-8-3.582-8-8S259.582,224,264,224z" fill="#eeeeee" data-original="#000000" style="" class=""/>
		</g>
	</g>
</g>
<g xmlns="http://www.w3.org/2000/svg">
</g>
<g xmlns="http://www.w3.org/2000/svg">
</g>
<g xmlns="http://www.w3.org/2000/svg">
</g>
<g xmlns="http://www.w3.org/2000/svg">
</g>
<g xmlns="http://www.w3.org/2000/svg">
</g>
<g xmlns="http://www.w3.org/2000/svg">
</g>
<g xmlns="http://www.w3.org/2000/svg">
</g>
<g xmlns="http://www.w3.org/2000/svg">
</g>
<g xmlns="http://www.w3.org/2000/svg">
</g>
<g xmlns="http://www.w3.org/2000/svg">
</g>
<g xmlns="http://www.w3.org/2000/svg">
</g>
<g xmlns="http://www.w3.org/2000/svg">
</g>
<g xmlns="http://www.w3.org/2000/svg">
</g>
<g xmlns="http://www.w3.org/2000/svg">
</g>
<g xmlns="http://www.w3.org/2000/svg">
</g>
</g></svg>
