<?xml version="1.0"?>
<svg xmlns="http://www.w3.org/2000/svg" xmlns:xlink="http://www.w3.org/1999/xlink" xmlns:svgjs="http://svgjs.com/svgjs" version="1.1" width="512" height="512" x="0" y="0" viewBox="0 0 368 368" style="enable-background:new 0 0 512 512" xml:space="preserve" class=""><g>
<g xmlns="http://www.w3.org/2000/svg">
	<g>
		<path d="M344,0H200c-13.232,0-24,10.768-24,24v40H24C10.768,64,0,74.768,0,87.992V248c0,13.232,10.768,24,24,24h88v32h-8    c-22.056,0-40,17.944-40,40v16c0,4.424,3.584,8,8,8h160h112c13.232,0,24-10.768,24-24V23.992C368,10.768,357.232,0,344,0z M24,256    c-4.408,0-8-3.584-8-8V87.992C16,83.584,19.592,80,24,80h256c4.408,0,8,3.584,8,8v160c0,4.416-3.592,8-8,8H24z M176,272v32h-48    v-32H176z M224,352H80v-8c0-13.232,10.768-24,24-24h96c13.232,0,24,10.768,24,24V352z M352,344c0,4.416-3.592,8-8,8H240v-8    c0-22.056-17.944-40-40-40h-8v-32h88c13.232,0,24-10.768,24-24v-72h48V344z M352,160h-48v-32h48V160z M352,112h-48V88    c0-2.816-0.576-5.488-1.472-8H352V112z M352,64h-72h-88V24c0-4.416,3.592-8,8-8h144c4.408,0,8,3.584,8,7.992V64z" fill="#eeeeee" data-original="#000000" style=""/>
	</g>
</g>
<g xmlns="http://www.w3.org/2000/svg">
</g>
<g xmlns="http://www.w3.org/2000/svg">
</g>
<g xmlns="http://www.w3.org/2000/svg">
</g>
<g xmlns="http://www.w3.org/2000/svg">
</g>
<g xmlns="http://www.w3.org/2000/svg">
</g>
<g xmlns="http://www.w3.org/2000/svg">
</g>
<g xmlns="http://www.w3.org/2000/svg">
</g>
<g xmlns="http://www.w3.org/2000/svg">
</g>
<g xmlns="http://www.w3.org/2000/svg">
</g>
<g xmlns="http://www.w3.org/2000/svg">
</g>
<g xmlns="http://www.w3.org/2000/svg">
</g>
<g xmlns="http://www.w3.org/2000/svg">
</g>
<g xmlns="http://www.w3.org/2000/svg">
</g>
<g xmlns="http://www.w3.org/2000/svg">
</g>
<g xmlns="http://www.w3.org/2000/svg">
</g>
</g></svg>
