<?xml version="1.0"?>
<svg xmlns="http://www.w3.org/2000/svg" xmlns:xlink="http://www.w3.org/1999/xlink" xmlns:svgjs="http://svgjs.com/svgjs" version="1.1" width="512" height="512" x="0" y="0" viewBox="0 0 512 512" style="enable-background:new 0 0 512 512" xml:space="preserve" class=""><g><g xmlns="http://www.w3.org/2000/svg"><path d="M456.11,200H440V80A72.083,72.083,0,0,0,368,8H144A72.083,72.083,0,0,0,72,80V200H55.89a40.04,40.04,0,0,0-40,40V448a8,8,0,0,0,8,8H32v40a8,8,0,0,0,8,8H64a8,8,0,0,0,7.89-6.68L78.78,456H433.22l6.89,41.32A8,8,0,0,0,448,504h24a8,8,0,0,0,8-8V456h8.11a8,8,0,0,0,8-8V240A40.04,40.04,0,0,0,456.11,200ZM88,80a56.062,56.062,0,0,1,56-56H368a56.062,56.062,0,0,1,56,56V200.79A40.061,40.061,0,0,0,391.89,240v50.69A71.859,71.859,0,0,0,336,264H176a71.859,71.859,0,0,0-55.89,26.69V240A40.061,40.061,0,0,0,88,200.79ZM391.42,328H120.58A56.086,56.086,0,0,1,176,280H336A56.086,56.086,0,0,1,391.42,328ZM57.22,488H48V456H62.56ZM464,488h-9.22l-5.34-32H464Zm16.11-48H31.89V240a24.032,24.032,0,0,1,24-24H80.11a24.032,24.032,0,0,1,24,24v92.44c-.03.69-.08,1.37-.09,2.06a4.18,4.18,0,0,0-.02.5v1a8,8,0,0,0,8,8H400a8,8,0,0,0,8-8v-1a4.18,4.18,0,0,0-.02-.5c-.01-.69-.06-1.37-.09-2.06V240a24.032,24.032,0,0,1,24-24h24.22a24.032,24.032,0,0,1,24,24Z" fill="#808080" data-original="#000000" style=""/><path d="M256,160a24,24,0,1,0-24-24A24.028,24.028,0,0,0,256,160Zm0-32a8,8,0,1,1-8,8A8.009,8.009,0,0,1,256,128Z" fill="#808080" data-original="#000000" style=""/><path d="M191,160a24,24,0,1,0-24-24A24.028,24.028,0,0,0,191,160Zm0-32a8,8,0,1,1-8,8A8.009,8.009,0,0,1,191,128Z" fill="#808080" data-original="#000000" style=""/><path d="M320,160a24,24,0,1,0-24-24A24.028,24.028,0,0,0,320,160Zm0-32a8,8,0,1,1-8,8A8.009,8.009,0,0,1,320,128Z" fill="#808080" data-original="#000000" style=""/><path d="M96,408H56a8,8,0,0,0,0,16H96a8,8,0,0,0,0-16Z" fill="#808080" data-original="#000000" style=""/><path d="M128,408h-8a8,8,0,0,0,0,16h8a8,8,0,0,0,0-16Z" fill="#808080" data-original="#000000" style=""/></g></g></svg>
